<svg xmlns="http://www.w3.org/2000/svg" viewBox="0 0 512 512">
  <defs>
    <linearGradient id="bg" x1="0%" y1="0%" x2="100%" y2="100%">
      <stop offset="0%" style="stop-color:#667eea"/>
      <stop offset="100%" style="stop-color:#764ba2"/>
    </linearGradient>
  </defs>
  <rect width="512" height="512" rx="96" fill="url(#bg)"/>
  <g fill="white">
    <!-- Book/Note icon -->
    <path d="M140 100 h232 a20 20 0 0 1 20 20 v272 a20 20 0 0 1 -20 20 h-232 a20 20 0 0 1 -20 -20 v-272 a20 20 0 0 1 20 -20 z" fill="white" opacity="0.95"/>
    <rect x="160" y="160" width="180" height="16" rx="8" fill="#667eea"/>
    <rect x="160" y="200" width="140" height="12" rx="6" fill="#86868b"/>
    <rect x="160" y="230" width="160" height="12" rx="6" fill="#86868b"/>
    <rect x="160" y="260" width="120" height="12" rx="6" fill="#86868b"/>
    <!-- Chat bubble -->
    <circle cx="380" cy="380" r="80" fill="#34C759"/>
    <path d="M340 365 h80 M340 395 h60" stroke="white" stroke-width="12" stroke-linecap="round"/>
  </g>
</svg>
